<svg width="89" height="110" viewBox="0 0 89 110" fill="none" xmlns="http://www.w3.org/2000/svg">
<path d="M18 22.4581L19.1474 17.2948L19.7211 16.1474L67.3384 15L70.7807 16.7211V22.4581L66.7647 23.6055L64.4699 42.5377L61.0277 41.964L54.1433 40.2429L45.5377 42.5377L40.9481 45.4062H29.4741L23.737 42.5377L20.8685 23.0318L18 22.4581Z" fill="white"/>
<path d="M36.1431 47.6174L32.7009 49.3385V51.0596C32.7009 51.6333 33.2746 57.3704 33.2746 57.9441V69.9918C33.2746 71.3687 34.422 74.3902 34.9957 75.7289H44.175H52.2068L53.9279 71.7129L55.649 61.3863L59.0913 43.6015C56.9877 43.219 52.6658 42.4541 52.2068 42.4541C51.7479 42.4541 47.8084 42.8366 45.8961 43.0278L42.4539 44.1752L36.1431 47.6174Z" fill="#FFF2AC"/>
<path d="M29.8323 48.7646L25.2427 45.8961L24.0953 57.3702L28.1112 82.0394H58.5175L63.6808 52.2069L63.1071 45.8961L59.6649 43.6013L54.5016 76.3024H33.8483L29.8323 48.7646Z" fill="#FF002A"/>
<path d="M59.8777 84.3813H28.472C28.1359 84.381 27.8116 84.2581 27.5597 84.0357C27.3077 83.8134 27.1456 83.5068 27.1036 83.1734L19.4575 24.0477C19.4343 23.8679 19.4467 23.6853 19.494 23.5103C19.5414 23.3353 19.6227 23.1713 19.7335 23.0277C19.8442 22.8842 19.9821 22.7638 20.1393 22.6735C20.2966 22.5833 20.4701 22.5248 20.6499 22.5016C20.8297 22.4784 21.0123 22.4908 21.1873 22.5382C21.3623 22.5855 21.5263 22.6669 21.6699 22.7776C21.8135 22.8883 21.9338 23.0262 22.0241 23.1835C22.1144 23.3407 22.1728 23.5142 22.196 23.694L29.6902 81.6203H58.6595L66.1537 23.694C66.1769 23.5142 66.2353 23.3407 66.3256 23.1835C66.4159 23.0262 66.5362 22.8883 66.6798 22.7776C66.8234 22.6669 66.9874 22.5855 67.1624 22.5382C67.3374 22.4908 67.52 22.4784 67.6998 22.5016C67.8796 22.5248 68.0531 22.5833 68.2104 22.6735C68.3676 22.7638 68.5055 22.8842 68.6162 23.0277C68.727 23.1713 68.8083 23.3353 68.8557 23.5103C68.903 23.6853 68.9154 23.8679 68.8922 24.0477L61.2409 83.1734C61.199 83.5059 61.0376 83.8118 60.7868 84.034C60.536 84.2563 60.2129 84.3797 59.8777 84.3813Z" fill="black" stroke="black" stroke-width="2.20876"/>
<path d="M53.8059 77.4789H34.5448C34.2088 77.4786 33.8844 77.3557 33.6325 77.1334C33.3806 76.911 33.2184 76.6044 33.1764 76.271L29.3801 46.948C29.3328 46.5846 29.4317 46.2173 29.6551 45.9269C29.8786 45.6365 30.2083 45.4467 30.5716 45.3993C30.935 45.3519 31.3023 45.4509 31.5928 45.6743C31.8832 45.8978 32.073 46.2275 32.1204 46.5908L35.7579 74.7179H52.5928L56.8671 41.6746C56.9237 41.3199 57.1163 41.0013 57.404 40.7863C57.6917 40.5713 58.0519 40.477 58.4081 40.5232C58.7643 40.5695 59.0884 40.7527 59.3117 41.0341C59.5349 41.3154 59.6397 41.6727 59.6039 42.0301L55.1743 76.271C55.1323 76.6044 54.9701 76.911 54.7182 77.1334C54.4663 77.3557 54.1419 77.4786 53.8059 77.4789Z" fill="black" stroke="black" stroke-width="2.20876"/>
<path d="M70.996 25.2505H17.3543C16.9882 25.2505 16.6371 25.105 16.3782 24.8461C16.1193 24.5873 15.9738 24.2361 15.9738 23.87V15.9012C15.9738 15.5351 16.1193 15.184 16.3782 14.9251C16.6371 14.6662 16.9882 14.5208 17.3543 14.5208H70.996C71.3622 14.5208 71.7133 14.6662 71.9722 14.9251C72.2311 15.184 72.3765 15.5351 72.3765 15.9012V23.87C72.3765 24.2361 72.2311 24.5873 71.9722 24.8461C71.7133 25.105 71.3622 25.2505 70.996 25.2505ZM18.7348 22.4895H69.6156V17.2817H18.7348V22.4895Z" fill="black" stroke="black" stroke-width="2.20876"/>
<path d="M35.0638 48.7478C30.0769 48.7478 27.4712 46.9377 25.1676 45.3415C24.3495 44.7452 23.4935 44.2028 22.6051 43.7177C22.4417 43.6356 22.2964 43.5219 22.1773 43.3832C22.0583 43.2444 21.968 43.0835 21.9117 42.9096C21.8554 42.7356 21.8342 42.5523 21.8493 42.3701C21.8644 42.188 21.9156 42.0106 21.9998 41.8484C22.084 41.6861 22.1996 41.5422 22.3398 41.425C22.4801 41.3078 22.6422 41.2196 22.8169 41.1656C22.9915 41.1115 23.1751 41.0927 23.3571 41.1102C23.539 41.1276 23.7157 41.1811 23.8768 41.2674C24.8719 41.8055 25.8305 42.4084 26.7465 43.0723C29.0001 44.6375 30.9466 45.9869 35.069 45.9869C39.1914 45.9869 41.1396 44.6357 43.3933 43.0723C45.6952 41.4745 48.3026 39.6643 53.2895 39.6643C58.2765 39.6643 60.8821 41.4745 63.1875 43.0706C63.9226 43.5883 64.6163 44.0628 65.379 44.4908C65.6994 44.6697 65.9355 44.9686 66.0355 45.3217C66.1355 45.6747 66.0911 46.053 65.9122 46.3734C65.7333 46.6938 65.4344 46.9299 65.0813 47.0299C64.7283 47.1299 64.3499 47.0856 64.0296 46.9066C63.1513 46.4131 62.3696 45.8713 61.6138 45.3536C59.3601 43.7902 57.4137 42.4391 53.2895 42.4391C49.1654 42.4391 47.2206 43.7902 44.967 45.3536C42.6599 46.9359 40.0525 48.7478 35.0638 48.7478Z" fill="black" stroke="black" stroke-width="2.20876"/>
<path d="M44.5273 45.3434C44.4876 45.3434 44.4497 45.3434 44.41 45.3434C44.0453 45.3127 43.7077 45.1384 43.4715 44.8588C43.2353 44.5792 43.1197 44.2173 43.1503 43.8525L46.1597 8.07069C46.1846 7.77337 46.3052 7.49213 46.5034 7.26908C46.7015 7.04603 46.9666 6.89319 47.2589 6.83344L61.1102 3.99657C61.469 3.92312 61.8423 3.9952 62.148 4.19698C62.4536 4.39875 62.6666 4.71367 62.7401 5.07248C62.8135 5.43128 62.7414 5.80456 62.5397 6.11021C62.3379 6.41586 62.023 6.62884 61.6642 6.7023L48.8327 9.33209L45.8992 44.0786C45.8702 44.4228 45.7133 44.7437 45.4593 44.9779C45.2053 45.2121 44.8728 45.3425 44.5273 45.3434Z" fill="black" stroke="black" stroke-width="2.20876"/>
</svg>
