<svg width="46" height="46" viewBox="0 0 46 46" fill="none" xmlns="http://www.w3.org/2000/svg">
<path fill-rule="evenodd" clip-rule="evenodd" d="M23.1823 6C17.6363 6 13.1404 10.3034 13.1404 15.6118C13.1404 19.9945 16.2049 23.6921 20.3947 24.8485C17.0871 25.2343 14.25 26.3541 12.1128 28.3701C9.39279 30.9361 8.01562 34.7559 8.01562 39.7405C8.01562 40.4363 8.60476 41 9.33146 41C10.0582 41 10.6473 40.4363 10.6473 39.7405C10.6473 35.1799 11.9017 32.106 13.9601 30.1642C16.0224 28.2189 19.1011 27.2123 23.1821 27.2123C27.2632 27.2123 30.3421 28.2189 32.4044 30.1643C34.4627 32.106 35.7173 35.1799 35.7173 39.7405C35.7173 40.4363 36.3062 41 37.0331 41C37.7597 41.0003 38.349 40.4363 38.349 39.7408C38.349 34.7559 36.9716 30.9361 34.2516 28.3701C32.1144 26.3541 29.2773 25.2343 25.9698 24.8485C30.1595 23.6921 33.2241 19.9945 33.2241 15.6118C33.2241 10.3034 28.7282 6 23.1823 6ZM15.7721 15.6118C15.7721 11.6945 19.0897 8.51896 23.1823 8.51896C27.2748 8.51896 30.5925 11.6945 30.5925 15.6118C30.5925 19.5291 27.2748 22.7047 23.1823 22.7047C19.0897 22.7047 15.7721 19.5291 15.7721 15.6118Z" fill="#482C2C"/>
</svg>
