<svg width="89" height="66" viewBox="0 0 89 66" fill="none" xmlns="http://www.w3.org/2000/svg">
<path d="M23.7939 16.2099L24.6942 12.1867L25.1443 11.2927L62.5046 10.3987L65.2053 11.7397V16.2099L62.0545 17.1039L60.254 31.8555L57.5532 31.4084L52.1517 30.0674L45.3999 31.8555L41.7989 34.0905H32.7964L28.2952 31.8555L26.0446 16.6569L23.7939 16.2099Z" fill="white"/>
<path d="M38.6998 34.1027L35.999 35.4438V36.7848C35.999 37.2319 36.4491 41.702 36.4491 42.149V51.5364C36.4491 52.6092 37.3494 54.9635 37.7995 56.0065H45.0015H51.3032L52.6536 52.8774L54.004 44.8311L56.7047 30.9736C55.0543 30.6756 51.6633 30.0796 51.3032 30.0796C50.9431 30.0796 47.8523 30.3776 46.3519 30.5266L43.6511 31.4206L38.6998 34.1027Z" fill="#FF002A"/>
<path d="M33.2464 36.3254L29.6454 34.0903L28.7451 43.0306L31.896 62.2523H55.7525L59.8037 39.0075L59.3535 34.0903L56.6528 32.3022L52.6017 57.7822H36.3972L33.2464 36.3254Z" fill="#315133"/>
<path d="M56.8201 64.0771H32.1793C31.9157 64.0769 31.6611 63.9812 31.4635 63.8079C31.2658 63.6346 31.1386 63.3957 31.1057 63.136L25.1066 17.0666C25.0884 16.9265 25.0981 16.7842 25.1353 16.6478C25.1724 16.5115 25.2362 16.3837 25.3231 16.2718C25.41 16.16 25.5182 16.0662 25.6416 15.9958C25.7649 15.9255 25.901 15.88 26.0421 15.8619C26.1832 15.8438 26.3265 15.8535 26.4638 15.8904C26.6011 15.9273 26.7298 15.9907 26.8424 16.0769C26.9551 16.1632 27.0495 16.2707 27.1203 16.3932C27.1911 16.5157 27.237 16.6509 27.2552 16.791L33.1351 61.9259H55.8642L61.7441 16.791C61.7624 16.6509 61.8082 16.5157 61.879 16.3932C61.9499 16.2707 62.0443 16.1632 62.1569 16.0769C62.2696 15.9907 62.3982 15.9273 62.5355 15.8904C62.6729 15.8535 62.8161 15.8438 62.9572 15.8619C63.0983 15.88 63.2344 15.9255 63.3578 15.9958C63.4812 16.0662 63.5894 16.16 63.6762 16.2718C63.7631 16.3837 63.8269 16.5115 63.8641 16.6478C63.9012 16.7842 63.911 16.9265 63.8928 17.0666L57.8896 63.136C57.8568 63.395 57.7301 63.6334 57.5333 63.8066C57.3365 63.9798 57.083 64.0759 56.8201 64.0771Z" fill="black" stroke="black" stroke-width="1.78876"/>
<path d="M52.0562 58.699H36.9441C36.6805 58.6988 36.426 58.603 36.2283 58.4298C36.0307 58.2565 35.9034 58.0176 35.8705 57.7578L32.8919 34.91C32.8547 34.6269 32.9324 34.3407 33.1077 34.1144C33.283 33.8881 33.5417 33.7402 33.8268 33.7033C34.1119 33.6664 34.4001 33.7435 34.6279 33.9176C34.8558 34.0917 35.0047 34.3486 35.0419 34.6317L37.8959 56.5477H51.1044L54.458 30.8011C54.5024 30.5248 54.6535 30.2765 54.8793 30.109C55.105 29.9415 55.3876 29.8679 55.6671 29.904C55.9465 29.94 56.2008 30.0828 56.376 30.302C56.5512 30.5213 56.6334 30.7996 56.6053 31.0781L53.1298 57.7578C53.0969 58.0176 52.9696 58.2565 52.772 58.4298C52.5743 58.603 52.3198 58.6988 52.0562 58.699Z" fill="black" stroke="black" stroke-width="1.78876"/>
<path d="M65.5431 18.0037H23.4562C23.1689 18.0037 22.8934 17.8903 22.6903 17.6886C22.4872 17.4869 22.373 17.2133 22.373 16.928V10.7189C22.373 10.4337 22.4872 10.1601 22.6903 9.95836C22.8934 9.75664 23.1689 9.64331 23.4562 9.64331H65.5431C65.8304 9.64331 66.1059 9.75664 66.309 9.95836C66.5121 10.1601 66.6262 10.4337 66.6262 10.7189V16.928C66.6262 17.2133 66.5121 17.4869 66.309 17.6886C66.1059 17.8903 65.8304 18.0037 65.5431 18.0037ZM24.5393 15.8524H64.46V11.7946H24.5393V15.8524Z" fill="black" stroke="black" stroke-width="1.78876"/>
<path d="M37.3512 36.3125C33.4385 36.3125 31.3941 34.9021 29.5867 33.6584C28.9449 33.1938 28.2733 32.7712 27.5762 32.3932C27.448 32.3292 27.334 32.2406 27.2406 32.1325C27.1472 32.0244 27.0763 31.899 27.0322 31.7635C26.988 31.628 26.9713 31.4851 26.9832 31.3432C26.9951 31.2012 27.0352 31.063 27.1013 30.9366C27.1673 30.8102 27.258 30.6981 27.3681 30.6068C27.4781 30.5154 27.6053 30.4467 27.7423 30.4046C27.8794 30.3625 28.0234 30.3478 28.1662 30.3614C28.3089 30.3751 28.4476 30.4167 28.574 30.4839C29.3547 30.9032 30.1068 31.373 30.8255 31.8903C32.5937 33.1098 34.1209 34.1613 37.3553 34.1613C40.5897 34.1613 42.1183 33.1085 43.8865 31.8903C45.6925 30.6453 47.7383 29.2349 51.651 29.2349C55.5637 29.2349 57.6081 30.6453 59.4169 31.889C59.9936 32.2924 60.5379 32.6621 61.1363 32.9955C61.3877 33.135 61.573 33.3679 61.6514 33.6429C61.7299 33.918 61.6951 34.2128 61.5547 34.4624C61.4143 34.7121 61.1798 34.8961 60.9028 34.974C60.6258 35.0519 60.3289 35.0173 60.0776 34.8779C59.3885 34.4934 58.7751 34.0712 58.1821 33.6678C56.414 32.4497 54.8868 31.3969 51.651 31.3969C48.4152 31.3969 46.8894 32.4497 45.1212 33.6678C43.311 34.9008 41.2653 36.3125 37.3512 36.3125Z" fill="black" stroke="black" stroke-width="1.78876"/>
<path d="M44.7766 33.6595C44.7454 33.6595 44.7156 33.6595 44.6845 33.6595C44.3984 33.6356 44.1335 33.4998 43.9482 33.2819C43.7628 33.0641 43.6722 32.7821 43.6962 32.4979L46.0574 4.61747C46.0769 4.38581 46.1715 4.16667 46.327 3.99288C46.4824 3.81908 46.6904 3.69999 46.9198 3.65343L57.7874 1.44301C58.0689 1.38578 58.3618 1.44195 58.6016 1.59916C58.8414 1.75638 59.0085 2.00176 59.0662 2.28133C59.1238 2.5609 59.0672 2.85176 58.9089 3.08991C58.7506 3.32807 58.5035 3.49402 58.222 3.55125L48.1545 5.60033L45.8529 32.674C45.8302 32.9422 45.7071 33.1923 45.5078 33.3747C45.3085 33.5572 45.0476 33.6588 44.7766 33.6595Z" fill="black" stroke="black" stroke-width="1.78876"/>
</svg>
