<svg id="Layer_1" data-name="Layer 1" xmlns="http://www.w3.org/2000/svg" viewBox="0 0 72 90"><defs><style>.cls-1{fill:#fff;}.cls-2{fill:#e5ba20;}.cls-3{fill:#fdf995;}.cls-4{stroke:#000;stroke-width:1.79px;}</style></defs><path class="cls-1" d="M13.57,26.11l.93-4.18L15,21l38.57-.93,2.78,1.39v4.65L53.06,27,51.2,42.37l-2.78-.46-5.58-1.4-7,1.86-3.72,2.32H22.86l-4.64-2.32-2.33-15.8Z"/><path class="cls-2" d="M29,44.71,26.17,46.1v1.39c0,.47.46,5.12.46,5.58v9.76A17.49,17.49,0,0,0,28,67.47H42l1.4-3.25,1.39-8.36,2.79-14.41c-1.71-.31-5.21-.92-5.58-.92s-3.56.3-5.11.46l-2.79.93Z"/><path class="cls-3" d="M23.33,47l-3.72-2.33L18.68,54l3.25,20H46.56L50.74,49.8l-.47-5.11-2.78-1.85L43.3,69.32H26.58Z"/><path class="cls-4" d="M47.66,75.86H22.22a1.09,1.09,0,0,1-.73-.28,1.08,1.08,0,0,1-.37-.7L14.92,27a1.63,1.63,0,0,1,0-.44,1.2,1.2,0,0,1,.2-.39,1.12,1.12,0,0,1,.33-.28,1,1,0,0,1,.41-.14,1.09,1.09,0,0,1,.44,0,1.18,1.18,0,0,1,.39.19,1.12,1.12,0,0,1,.28.33,1.05,1.05,0,0,1,.14.41l6.07,46.92H46.67l6.07-46.92a1.25,1.25,0,0,1,.14-.41,1,1,0,0,1,.29-.33,1.09,1.09,0,0,1,.39-.19,1.12,1.12,0,0,1,.85.11,1.26,1.26,0,0,1,.33.28,1.18,1.18,0,0,1,.19.39A1.09,1.09,0,0,1,55,27l-6.2,47.88a1.08,1.08,0,0,1-.37.7A1.09,1.09,0,0,1,47.66,75.86Z"/><path class="cls-4" d="M42.74,70.27H27.14A1.14,1.14,0,0,1,26.4,70a1.17,1.17,0,0,1-.37-.7L23,45.55a1.12,1.12,0,0,1,1.79-1,1.13,1.13,0,0,1,.43.75L28.12,68H41.76l3.46-26.76a1.13,1.13,0,0,1,.43-.72,1.15,1.15,0,0,1,.82-.22,1.12,1.12,0,0,1,.73.42,1.09,1.09,0,0,1,.24.8L43.85,69.29a1.12,1.12,0,0,1-1.11,1Z"/><path class="cls-4" d="M56.66,28H13.22a1.1,1.1,0,0,1-.79-.32,1.13,1.13,0,0,1-.33-.79V20.4a1.13,1.13,0,0,1,.33-.79,1.11,1.11,0,0,1,.79-.33H56.66a1.11,1.11,0,0,1,.79.33,1.13,1.13,0,0,1,.33.79v6.46a1.13,1.13,0,0,1-.33.79A1.1,1.1,0,0,1,56.66,28ZM14.34,25.74h41.2V21.52H14.34Z"/><path class="cls-4" d="M27.56,47a12.46,12.46,0,0,1-8-2.76,18.65,18.65,0,0,0-2.08-1.31,1.13,1.13,0,0,1-.34-.27,1.11,1.11,0,0,1-.22-.38,1.32,1.32,0,0,1-.05-.44,1.12,1.12,0,0,1,.4-.77,1.28,1.28,0,0,1,.38-.21,1.12,1.12,0,0,1,.44,0,1,1,0,0,1,.42.13,19.35,19.35,0,0,1,2.33,1.46,10.26,10.26,0,0,0,6.74,2.36,10.28,10.28,0,0,0,6.74-2.36,13,13,0,0,1,16,0c.59.42,1.16.8,1.77,1.15a1.13,1.13,0,0,1,.54.67,1.15,1.15,0,0,1-.1.85,1.13,1.13,0,0,1-.68.53,1.1,1.1,0,0,1-.85-.1c-.71-.4-1.34-.84-2-1.26a10.8,10.8,0,0,0-13.48,0A12.57,12.57,0,0,1,27.56,47Z"/><path class="cls-4" d="M35.23,44.25h-.1a1.13,1.13,0,0,1-1-1.21l2.44-29a1.12,1.12,0,0,1,.28-.65,1.11,1.11,0,0,1,.61-.35l11.22-2.3a1.13,1.13,0,0,1,.84.16,1.17,1.17,0,0,1,.48.71A1.14,1.14,0,0,1,49.11,13l-10.4,2.13L36.34,43.22A1.14,1.14,0,0,1,36,44,1.09,1.09,0,0,1,35.23,44.25Z"/></svg>