<svg width="89" height="66" viewBox="0 0 89 66" fill="none" xmlns="http://www.w3.org/2000/svg">
<ellipse cx="45" cy="32.9706" rx="33" ry="32.0294" fill="#315133"/>
<path d="M45.4073 43.8146C44.8313 43.8146 44.3833 43.7346 44.0633 43.5746C43.7753 43.4146 43.5673 43.1906 43.4393 42.9026C43.3433 42.5826 43.2953 42.2146 43.2953 41.7986V23.6546C43.2953 23.2066 43.3433 22.8386 43.4393 22.5506C43.5673 22.2626 43.7753 22.0386 44.0633 21.8786C44.3833 21.7186 44.8313 21.6386 45.4073 21.6386C46.0153 21.6386 46.4633 21.7346 46.7513 21.9266C47.0393 22.0866 47.2313 22.3266 47.3273 22.6466C47.4233 22.9346 47.4713 23.2866 47.4713 23.7026V41.7506C47.4713 42.1666 47.4233 42.5346 47.3273 42.8546C47.2313 43.1746 47.0393 43.4146 46.7513 43.5746C46.4633 43.7346 46.0153 43.8146 45.4073 43.8146ZM36.2873 34.7906C35.8713 34.7906 35.5193 34.7586 35.2313 34.6946C34.9433 34.5986 34.7033 34.4066 34.5113 34.1186C34.3513 33.7986 34.2713 33.3506 34.2713 32.7746C34.2713 32.1346 34.3513 31.6706 34.5113 31.3826C34.6713 31.0946 34.9113 30.9026 35.2313 30.8066C35.5513 30.7106 35.9033 30.6626 36.2873 30.6626H54.4793C54.8953 30.6626 55.2473 30.7106 55.5353 30.8066C55.8553 30.9026 56.0793 31.1106 56.2073 31.4306C56.3673 31.7186 56.4473 32.1666 56.4473 32.7746C56.4473 33.3826 56.3673 33.8306 56.2073 34.1186C56.0473 34.4066 55.8233 34.5986 55.5353 34.6946C55.2473 34.7586 54.8953 34.7906 54.4793 34.7906H36.2873Z" fill="#5B965E"/>
</svg>
