<svg width="35" height="30" viewBox="0 0 35 30" fill="none" xmlns="http://www.w3.org/2000/svg">
<path fill-rule="evenodd" clip-rule="evenodd" d="M16.4982 0.39907C17.0541 -0.133023 17.9459 -0.133023 18.5018 0.39907L34.5733 15.7813C35.1357 16.3197 35.1431 17.1997 34.59 17.7469C34.0366 18.2942 33.1321 18.3014 32.5697 17.7631L30.5952 15.8734V28.8417C30.5952 29.4813 30.0624 30 29.4047 30H5.59523C4.93776 30 4.40476 29.4813 4.40476 28.8417V15.8734L2.4304 17.7631C1.86794 18.3014 0.963448 18.2942 0.410157 17.7469C-0.143135 17.1997 -0.135705 16.3197 0.426752 15.7813L16.4982 0.39907ZM17.5 3.33971L28.2143 13.5946V27.6834H22.5V19.5753C22.5 18.9356 22.1575 18.417 21.5 18.417H13.5C12.8425 18.417 12.5 18.9356 12.5 19.5753V27.6834H6.78571V13.5946L17.5 3.33971ZM15 27.6834H20V20.7336H15V27.6834Z" fill="#FFF3DB"/>
</svg>
