<svg width="46" height="46" viewBox="0 0 46 46" fill="none" xmlns="http://www.w3.org/2000/svg">
<path fill-rule="evenodd" clip-rule="evenodd" d="M21.5138 6.46558C22.0698 5.84481 22.9615 5.84481 23.5175 6.46558L39.5889 24.4116C40.1513 25.0396 40.1587 26.0663 39.6056 26.7048C39.0523 27.3433 38.1477 27.3517 37.5854 26.7236L35.6108 24.519V39.6486C35.6108 40.3949 35.078 41 34.4204 41H10.6109C9.95338 41 9.42038 40.3949 9.42038 39.6486V24.519L7.44602 26.7236C6.88356 27.3517 5.97907 27.3433 5.42578 26.7048C4.87249 26.0663 4.87992 25.0396 5.44238 24.4116L21.5138 6.46558ZM22.5156 9.89633L33.2299 21.8603V38.2973H27.5156V28.8378C27.5156 28.0915 27.1731 27.4865 26.5156 27.4865H18.5156C17.8581 27.4865 17.5156 28.0915 17.5156 28.8378V38.2973H11.8013V21.8603L22.5156 9.89633ZM20.0156 38.2973H25.0156V30.1892H20.0156V38.2973Z" fill="#482C2C"/>
</svg>
