<svg width="35" height="35" viewBox="0 0 35 35" fill="none" xmlns="http://www.w3.org/2000/svg">
<path d="M17.5146 11.1928C16.7646 11.1928 16.148 10.9761 15.6646 10.5428C15.198 10.0928 14.9646 9.54277 14.9646 8.89277C14.9646 8.22611 15.198 7.67611 15.6646 7.24277C16.148 6.79277 16.7646 6.56777 17.5146 6.56777C18.248 6.56777 18.848 6.79277 19.3146 7.24277C19.798 7.67611 20.0396 8.22611 20.0396 8.89277C20.0396 9.54277 19.798 10.0928 19.3146 10.5428C18.848 10.9761 18.248 11.1928 17.5146 11.1928ZM19.6396 12.6428V26.5928H15.3646V12.6428H19.6396Z" fill="#FFF3DB"/>
<circle cx="17.5" cy="17.5" r="16.5" stroke="#FFF3DB" stroke-width="2"/>
</svg>

