<svg width="46" height="46" viewBox="0 0 46 46" fill="none" xmlns="http://www.w3.org/2000/svg">
<path d="M22.5209 17.0925C21.9043 17.0925 21.3876 16.9009 20.9709 16.5175C20.5709 16.1175 20.3709 15.6259 20.3709 15.0425C20.3709 14.4592 20.5709 13.9759 20.9709 13.5925C21.3876 13.1925 21.9043 12.9925 22.5209 12.9925C23.1376 12.9925 23.6459 13.1925 24.0459 13.5925C24.4626 13.9759 24.6709 14.4592 24.6709 15.0425C24.6709 15.6259 24.4626 16.1175 24.0459 16.5175C23.6459 16.9009 23.1376 17.0925 22.5209 17.0925ZM24.2459 18.7425V32.5925H20.7459V18.7425H24.2459Z" fill="#482C2C"/>
<circle cx="22.5" cy="23.5" r="16.5" stroke="#482C2C" stroke-width="2"/>
</svg>
