<svg width="46" height="46" viewBox="0 0 46 46" fill="none" xmlns="http://www.w3.org/2000/svg">
<path d="M30.3587 39.9799H16.5201C16.372 39.9797 16.2291 39.9278 16.1181 39.8339C16.0071 39.7399 15.9356 39.6103 15.9171 39.4695L12.548 14.4853C12.5377 14.4093 12.5432 14.3321 12.5641 14.2582C12.5849 14.1842 12.6208 14.1149 12.6696 14.0543C12.7184 13.9936 12.7791 13.9427 12.8484 13.9046C12.9177 13.8665 12.9942 13.8418 13.0734 13.832C13.1526 13.8221 13.2331 13.8274 13.3102 13.8474C13.3873 13.8674 13.4596 13.9018 13.5228 13.9486C13.5861 13.9954 13.6391 14.0536 13.6789 14.1201C13.7187 14.1865 13.7444 14.2598 13.7547 14.3358L17.0569 38.8132H29.8219L33.1241 14.3358C33.1343 14.2598 33.1601 14.1865 33.1999 14.1201C33.2396 14.0536 33.2927 13.9954 33.3559 13.9486C33.4192 13.9018 33.4915 13.8674 33.5686 13.8474C33.6457 13.8274 33.7262 13.8221 33.8054 13.832C33.8846 13.8418 33.9611 13.8665 34.0304 13.9046C34.0996 13.9427 34.1604 13.9936 34.2092 14.0543C34.258 14.1149 34.2938 14.1842 34.3147 14.2582C34.3356 14.3321 34.341 14.4093 34.3308 14.4853L30.9594 39.4695C30.9409 39.61 30.8698 39.7392 30.7593 39.8331C30.6487 39.9271 30.5063 39.9792 30.3587 39.9799Z" fill="#FFF3DB" stroke="#FFF3DB" stroke-width="0.8"/>
<path d="M27.686 37.0633H19.1988C19.0508 37.0631 18.9078 37.0112 18.7968 36.9172C18.6858 36.8233 18.6144 36.6937 18.5959 36.5528L16.9231 24.1621C16.9022 24.0086 16.9458 23.8534 17.0443 23.7306C17.1427 23.6079 17.288 23.5277 17.4481 23.5077C17.6082 23.4877 17.7701 23.5295 17.8981 23.6239C18.026 23.7183 18.1097 23.8576 18.1305 24.0112L19.7334 35.8966H27.1515L29.0349 21.9338C29.0598 21.7839 29.1447 21.6493 29.2715 21.5584C29.3983 21.4676 29.557 21.4277 29.7139 21.4472C29.8709 21.4668 30.0137 21.5442 30.1121 21.6631C30.2104 21.782 30.2566 21.933 30.2408 22.084L28.289 36.5528C28.2704 36.6937 28.199 36.8233 28.088 36.9172C27.977 37.0112 27.8341 37.0631 27.686 37.0633Z" fill="#FFF3DB" stroke="#FFF3DB" stroke-width="0.8"/>
<path d="M35.2605 14.9929H11.6239C11.4626 14.9929 11.3079 14.9315 11.1938 14.8221C11.0797 14.7127 11.0156 14.5643 11.0156 14.4096V11.0423C11.0156 10.8876 11.0797 10.7392 11.1938 10.6298C11.3079 10.5204 11.4626 10.459 11.6239 10.459H35.2605C35.4218 10.459 35.5765 10.5204 35.6906 10.6298C35.8047 10.7392 35.8688 10.8876 35.8688 11.0423V14.4096C35.8688 14.5643 35.8047 14.7127 35.6906 14.8221C35.5765 14.9315 35.4218 14.9929 35.2605 14.9929ZM12.2322 13.8263H34.6522V11.6257H12.2322V13.8263Z" fill="#FFF3DB" stroke="#FFF3DB" stroke-width="0.8"/>
<path d="M19.4265 24.9223C17.229 24.9223 16.0809 24.1574 15.0658 23.4829C14.7053 23.231 14.3282 23.0018 13.9367 22.7968C13.8647 22.7621 13.8006 22.7141 13.7482 22.6554C13.6957 22.5968 13.656 22.5288 13.6311 22.4553C13.6063 22.3818 13.597 22.3043 13.6036 22.2274C13.6103 22.1504 13.6328 22.0754 13.6699 22.0069C13.7071 21.9383 13.758 21.8775 13.8198 21.828C13.8816 21.7785 13.953 21.7412 14.03 21.7184C14.1069 21.6955 14.1878 21.6876 14.268 21.6949C14.3482 21.7023 14.426 21.7249 14.497 21.7614C14.9355 21.9888 15.3579 22.2435 15.7615 22.5241C16.7546 23.1854 17.6122 23.7557 19.4287 23.7557C21.2453 23.7557 22.1037 23.1847 23.0967 22.5241C24.1111 21.8489 25.26 21.084 27.4574 21.084C29.6548 21.084 30.803 21.8489 31.8188 22.5234C32.1427 22.7421 32.4484 22.9426 32.7845 23.1235C32.9257 23.1991 33.0297 23.3254 33.0738 23.4746C33.1178 23.6238 33.0983 23.7836 33.0194 23.919C32.9406 24.0544 32.8089 24.1541 32.6533 24.1964C32.4978 24.2387 32.331 24.2199 32.1899 24.1443C31.8029 23.9358 31.4584 23.7068 31.1254 23.488C30.1324 22.8274 29.2747 22.2565 27.4574 22.2565C25.6401 22.2565 24.7832 22.8274 23.7902 23.488C22.7736 24.1567 21.6247 24.9223 19.4265 24.9223Z" fill="#FFF3DB" stroke="#FFF3DB" stroke-width="0.8"/>
<path d="M23.5972 23.4834C23.5797 23.4834 23.563 23.4834 23.5455 23.4834C23.3848 23.4704 23.236 23.3968 23.1319 23.2786C23.0278 23.1605 22.9769 23.0075 22.9904 22.8534L24.3165 7.73342C24.3275 7.60779 24.3806 7.48894 24.4679 7.39469C24.5552 7.30044 24.672 7.23586 24.8008 7.21061L30.9042 6.01186C31.0623 5.98082 31.2268 6.01128 31.3615 6.09654C31.4962 6.1818 31.59 6.31488 31.6224 6.46649C31.6548 6.61811 31.623 6.77584 31.5341 6.905C31.4452 7.03416 31.3064 7.12415 31.1483 7.15519L25.4943 8.26644L24.2017 22.9489C24.1889 23.0944 24.1198 23.23 24.0078 23.3289C23.8959 23.4279 23.7494 23.483 23.5972 23.4834Z" fill="#FFF3DB" stroke="#FFF3DB" stroke-width="0.8"/>
</svg>
