<svg width="46" height="46" viewBox="0 0 46 46" fill="none" xmlns="http://www.w3.org/2000/svg">
<path d="M6.80691 19.7381L6.80714 19.7381L6.80691 19.7381ZM6.80691 19.7381L6.80689 19.7381C6.8069 19.7381 6.8069 19.7381 6.80691 19.7381ZM31.5915 27.05L31.5913 27.0501C31.09 27.5008 30.8859 28.1889 31.0321 28.8317L33.5146 39.7491L24.4485 33.94L24.4483 33.9398C23.8685 33.5685 23.1315 33.5685 22.5517 33.9398L22.5515 33.94L13.4855 39.7491L15.968 28.8318C16.1143 28.1887 15.9099 27.5006 15.4085 27.05L7.23178 19.7023L17.9171 18.8037C18.6082 18.7456 19.1792 18.2907 19.4247 17.6714C19.4247 17.6714 19.4247 17.6713 19.4247 17.6713L23.5 7.39284L27.5753 17.6714C27.8208 18.2907 28.3918 18.7456 29.0829 18.8037L39.7683 19.7023L31.5915 27.05ZM33.9605 40.0348L33.9605 40.0348L33.9605 40.0348ZM13.0396 40.0348C13.0397 40.0347 13.0398 40.0346 13.04 40.0345L13.0396 40.0348Z" stroke="#FFF3DB" stroke-width="2"/>
</svg>
