<svg width="27" height="25" viewBox="0 0 27 25" fill="none" xmlns="http://www.w3.org/2000/svg">
<path d="M0.557884 9.10193L0.557823 9.10114L0.557884 9.10193ZM0.557884 9.10193L0.557946 9.10272L0.557884 9.10193ZM19.618 14.7983L19.6179 14.7984C19.1574 15.1817 18.9459 15.7953 19.0915 16.3885L20.0627 16.15L19.0915 16.3885L20.8559 23.5728L14.3258 19.6985L14.3255 19.6984C13.8174 19.3971 13.1826 19.3971 12.6744 19.6984L12.6742 19.6985L6.1442 23.5727L7.9085 16.3885C7.9085 16.3885 7.90851 16.3885 7.90852 16.3885C8.05425 15.7951 7.84253 15.1815 7.38197 14.7983L6.74237 15.567L7.38197 14.7983L1.63908 10.02L9.20618 9.4307C9.79175 9.38509 10.3202 9.02324 10.5584 8.46704L13.5 1.59734L16.4416 8.46704C16.4416 8.46704 16.4416 8.46705 16.4416 8.46705C16.6798 9.02325 17.2082 9.38509 17.7938 9.4307L25.361 10.02L19.618 14.7983ZM0.63546 10.0981L0.636013 10.0981C0.635823 10.0981 0.635632 10.0981 0.635442 10.0981L0.63546 10.0981ZM26.3646 10.0981C26.3644 10.0981 26.3642 10.0981 26.364 10.0981L26.3646 10.0981L26.3646 10.0981Z" fill="#F8DD80" stroke="#482C2C" stroke-width="2"/>
</svg>
