<svg width="26" height="30" viewBox="0 0 26 30" fill="none" xmlns="http://www.w3.org/2000/svg">
<path fill-rule="evenodd" clip-rule="evenodd" d="M13 0C8.24629 0 4.39265 3.6886 4.39265 8.2387C4.39265 11.9953 7.01935 15.1646 10.6107 16.1558C7.77551 16.4865 5.34378 17.4464 3.51191 19.1744C1.18043 21.3738 0 24.6479 0 28.9204C0 29.5168 0.504971 30 1.12786 30C1.75077 30 2.25571 29.5168 2.25571 28.9204C2.25571 25.0113 3.33095 22.3765 5.09527 20.7122C6.86292 19.0448 9.50182 18.1819 12.9999 18.1819C16.4979 18.1819 19.1369 19.0448 20.9047 20.7122C22.6689 22.3765 23.7443 25.0113 23.7443 28.9204C23.7443 29.5168 24.2491 30 24.8721 30C25.495 30.0002 26 29.5168 26 28.9207C26 24.6479 24.8194 21.3738 22.488 19.1744C20.6561 17.4464 18.2243 16.4866 15.3893 16.1558C18.9805 15.1647 21.6073 11.9953 21.6073 8.2387C21.6073 3.6886 17.7537 0 13 0ZM6.64837 8.2387C6.64837 4.88104 9.49208 2.15911 13 2.15911C16.5079 2.15911 19.3516 4.88104 19.3516 8.2387C19.3516 11.5964 16.5079 14.3183 13 14.3183C9.49208 14.3183 6.64837 11.5964 6.64837 8.2387Z" fill="#FFF3DB"/>
</svg>
