<svg width="102" height="66" viewBox="0 0 102 66" fill="none" xmlns="http://www.w3.org/2000/svg">
<circle cx="51" cy="33" r="33" fill="#315133"/>
<path d="M51.0092 44.7214C50.4332 44.7214 49.9852 44.6414 49.6652 44.4814C49.3772 44.3214 49.1692 44.0974 49.0412 43.8094C48.9452 43.4894 48.8972 43.1214 48.8972 42.7054V24.5614C48.8972 24.1134 48.9452 23.7454 49.0412 23.4574C49.1692 23.1694 49.3772 22.9454 49.6652 22.7854C49.9852 22.6254 50.4332 22.5454 51.0092 22.5454C51.6172 22.5454 52.0652 22.6414 52.3532 22.8334C52.6412 22.9934 52.8332 23.2334 52.9292 23.5534C53.0252 23.8414 53.0732 24.1934 53.0732 24.6094V42.6574C53.0732 43.0734 53.0252 43.4414 52.9292 43.7614C52.8332 44.0814 52.6412 44.3214 52.3532 44.4814C52.0652 44.6414 51.6172 44.7214 51.0092 44.7214ZM41.8892 35.6974C41.4732 35.6974 41.1212 35.6654 40.8332 35.6014C40.5452 35.5054 40.3052 35.3134 40.1132 35.0254C39.9532 34.7054 39.8732 34.2574 39.8732 33.6814C39.8732 33.0414 39.9532 32.5774 40.1132 32.2894C40.2732 32.0014 40.5132 31.8094 40.8332 31.7134C41.1532 31.6174 41.5052 31.5694 41.8892 31.5694H60.0812C60.4972 31.5694 60.8492 31.6174 61.1372 31.7134C61.4572 31.8094 61.6812 32.0174 61.8092 32.3374C61.9692 32.6254 62.0492 33.0734 62.0492 33.6814C62.0492 34.2894 61.9692 34.7374 61.8092 35.0254C61.6492 35.3134 61.4252 35.5054 61.1372 35.6014C60.8492 35.6654 60.4972 35.6974 60.0812 35.6974H41.8892Z" fill="#5B965E"/>
</svg>
