<svg width="32" height="40" viewBox="0 0 32 40" fill="none" xmlns="http://www.w3.org/2000/svg">
<path d="M21.6875 30.5626H10.3125C10.1908 30.5625 10.0733 30.518 9.98207 30.4375C9.89082 30.3569 9.83209 30.2459 9.81688 30.1251L7.0475 8.71012C7.03909 8.64499 7.04359 8.57884 7.06074 8.51545C7.07789 8.45206 7.10736 8.39267 7.14746 8.34067C7.18756 8.28867 7.23752 8.24508 7.29447 8.21238C7.35142 8.17969 7.41425 8.15853 7.47938 8.15012C7.5445 8.1417 7.61065 8.1462 7.67404 8.16335C7.73743 8.1805 7.79682 8.20997 7.84882 8.25007C7.90082 8.29018 7.94441 8.34013 7.97711 8.39708C8.00981 8.45403 8.03096 8.51686 8.03938 8.58199L10.7538 29.5626H21.2463L23.9606 8.58199C23.969 8.51686 23.9902 8.45403 24.0229 8.39708C24.0556 8.34013 24.0992 8.29018 24.1512 8.25007C24.2032 8.20997 24.2626 8.1805 24.326 8.16335C24.3894 8.1462 24.4555 8.1417 24.5206 8.15012C24.5858 8.15853 24.6486 8.17969 24.7055 8.21238C24.7625 8.24508 24.8124 8.28867 24.8525 8.34067C24.8927 8.39267 24.9221 8.45206 24.9393 8.51545C24.9564 8.57884 24.9609 8.64499 24.9525 8.71012L22.1813 30.1251C22.1661 30.2455 22.1076 30.3563 22.0168 30.4368C21.9259 30.5173 21.8089 30.562 21.6875 30.5626Z" fill="#FFF3DB" stroke="#FFF3DB" stroke-width="0.8"/>
<path d="M19.4881 28.0624H12.5119C12.3902 28.0623 12.2727 28.0178 12.1814 27.9373C12.0902 27.8567 12.0315 27.7457 12.0163 27.6249L10.6413 17.0043C10.6241 16.8727 10.6599 16.7396 10.7409 16.6344C10.8218 16.5292 10.9412 16.4605 11.0728 16.4434C11.2044 16.4262 11.3375 16.462 11.4427 16.543C11.5479 16.6239 11.6166 16.7433 11.6338 16.8749L12.9513 27.0624H19.0488L20.5969 15.0943C20.6174 14.9658 20.6871 14.8504 20.7914 14.7726C20.8956 14.6947 21.026 14.6605 21.155 14.6773C21.284 14.694 21.4014 14.7604 21.4823 14.8623C21.5632 14.9642 21.6011 15.0936 21.5881 15.223L19.9838 27.6249C19.9685 27.7457 19.9098 27.8567 19.8186 27.9373C19.7273 28.0178 19.6098 28.0623 19.4881 28.0624Z" fill="#FFF3DB" stroke="#FFF3DB" stroke-width="0.8"/>
<path d="M25.7144 9.14553H6.28563C6.15302 9.14553 6.02584 9.09285 5.93207 8.99908C5.8383 8.90531 5.78563 8.77814 5.78563 8.64553V5.75928C5.78563 5.62667 5.8383 5.49949 5.93207 5.40572C6.02584 5.31196 6.15302 5.25928 6.28563 5.25928H25.7144C25.847 5.25928 25.9742 5.31196 26.0679 5.40572C26.1617 5.49949 26.2144 5.62667 26.2144 5.75928V8.64553C26.2144 8.77814 26.1617 8.90531 26.0679 8.99908C25.9742 9.09285 25.847 9.14553 25.7144 9.14553ZM6.78563 8.14553H25.2144V6.25928H6.78563V8.14553Z" fill="#FFF3DB" stroke="#FFF3DB" stroke-width="0.8"/>
<path d="M12.7 17.6562C10.8938 17.6562 9.95 17.0006 9.11563 16.4225C8.81934 16.2065 8.50931 16.01 8.1875 15.8343C8.12835 15.8046 8.07569 15.7634 8.03258 15.7132C7.98947 15.6629 7.95677 15.6046 7.93637 15.5416C7.91598 15.4786 7.90829 15.4122 7.91377 15.3462C7.91924 15.2803 7.93777 15.216 7.96827 15.1573C7.99877 15.0985 8.04063 15.0464 8.09144 15.0039C8.14224 14.9615 8.20097 14.9295 8.26422 14.91C8.32746 14.8904 8.39397 14.8836 8.45987 14.8899C8.52577 14.8962 8.58976 14.9156 8.64813 14.9468C9.00854 15.1417 9.35575 15.3601 9.6875 15.6006C10.5038 16.1675 11.2088 16.6562 12.7019 16.6562C14.195 16.6562 14.9006 16.1668 15.7169 15.6006C16.5506 15.0218 17.495 14.3662 19.3013 14.3662C21.1075 14.3662 22.0512 15.0218 22.8862 15.6C23.1525 15.7875 23.4038 15.9593 23.68 16.1143C23.796 16.1791 23.8816 16.2874 23.9178 16.4153C23.954 16.5432 23.9379 16.6802 23.8731 16.7962C23.8083 16.9122 23.7001 16.9978 23.5722 17.034C23.4443 17.0702 23.3073 17.0541 23.1912 16.9893C22.8731 16.8106 22.59 16.6143 22.3162 16.4268C21.5 15.8606 20.795 15.3712 19.3013 15.3712C17.8075 15.3712 17.1031 15.8606 16.2869 16.4268C15.4513 17 14.5069 17.6562 12.7 17.6562Z" fill="#FFF3DB" stroke="#FFF3DB" stroke-width="0.8"/>
<path d="M16.1281 16.423C16.1137 16.423 16.1 16.423 16.0856 16.423C15.9535 16.4119 15.8313 16.3488 15.7457 16.2475C15.6601 16.1462 15.6183 16.0151 15.6294 15.883L16.7194 2.92305C16.7284 2.81536 16.7721 2.71349 16.8438 2.63271C16.9156 2.55192 17.0116 2.49656 17.1175 2.47492L22.1344 1.44742C22.2643 1.42082 22.3995 1.44693 22.5102 1.52001C22.6209 1.59309 22.6981 1.70715 22.7247 1.83711C22.7513 1.96706 22.7252 2.10227 22.6521 2.21297C22.579 2.32368 22.465 2.40082 22.335 2.42742L17.6875 3.37992L16.625 15.9649C16.6145 16.0896 16.5577 16.2058 16.4657 16.2906C16.3737 16.3755 16.2532 16.4227 16.1281 16.423Z" fill="#FFF3DB" stroke="#FFF3DB" stroke-width="0.8"/>
</svg>
