<svg width="30" height="30" viewBox="0 0 30 30" fill="none" xmlns="http://www.w3.org/2000/svg">
<path d="M21.8401 17.9366L21.8399 17.9367C21.3705 18.3587 21.1804 19.0018 21.3168 19.6017L23.3673 28.6193L15.8901 23.8283L15.8898 23.8281C15.3459 23.4798 14.6541 23.4798 14.1101 23.8281L14.1099 23.8283L6.63279 28.6193L8.68328 19.6018C8.68329 19.6017 8.6833 19.6017 8.6833 19.6017C8.81978 19.0016 8.62942 18.3585 8.15992 17.9366L1.39714 11.8595L10.2266 11.1169C10.8758 11.0623 11.4103 10.6353 11.6397 10.0567C11.6397 10.0567 11.6397 10.0567 11.6397 10.0567L15 1.58146L18.3603 10.0567C18.3603 10.0567 18.3603 10.0567 18.3603 10.0567C18.5897 10.6353 19.1242 11.0623 19.7733 11.1169L28.6029 11.8595L21.8401 17.9366ZM24.0432 29.0524L24.0432 29.0524L24.0432 29.0524ZM5.95685 29.0524C5.95695 29.0523 5.95706 29.0523 5.95716 29.0522L5.95685 29.0524ZM0.703609 11.9178L0.70404 11.9178C0.703891 11.9178 0.703741 11.9178 0.703591 11.9179L0.703609 11.9178ZM29.2965 11.9179C29.2963 11.9178 29.2962 11.9178 29.296 11.9178L29.2964 11.9178L29.2965 11.9179Z" stroke="#482C2C" stroke-width="2"/>
</svg>
