<svg width="72" height="90" viewBox="0 0 72 90" fill="none" xmlns="http://www.w3.org/2000/svg">
<path d="M14.4031 18.5844L15.3323 14.4029L15.7969 13.4737L54.3597 12.5444L57.1474 13.9383V18.5844L53.8951 19.5136L52.0366 34.8458L49.249 34.3812L43.6736 32.9874L36.7044 34.8458L32.9876 37.1689H23.6953L19.0492 34.8458L16.7261 19.049L14.4031 18.5844Z" fill="white"/>
<path d="M29.7877 37.1815L27 38.5753V39.9692C27 40.4338 27.4646 45.0799 27.4646 45.5445V55.3014C27.4646 56.4164 28.3938 58.8634 28.8584 59.9475H36.2922H42.7968L44.1906 56.6952L45.5845 48.3322L48.3721 33.9292C46.6686 33.6195 43.1685 33 42.7968 33C42.4251 33 39.2348 33.3097 37.6861 33.4646L34.8984 34.3938L29.7877 37.1815Z" fill="#E5BA20"/>
<path d="M24.1598 39.4921L20.4429 37.169L19.5137 46.4612L22.766 66.4395H47.3904L51.5719 42.2797L51.1073 37.169L48.3196 35.3105L44.1381 61.7934H27.4121L24.1598 39.4921Z" fill="#FDF995"/>
<path d="M48.4922 68.3359H23.0584C22.7862 68.3357 22.5235 68.2362 22.3195 68.0561C22.1155 67.876 21.9842 67.6277 21.9502 67.3577L15.758 19.475C15.7392 19.3293 15.7492 19.1814 15.7876 19.0397C15.8259 18.898 15.8918 18.7652 15.9815 18.6489C16.0712 18.5326 16.1829 18.4352 16.3102 18.3621C16.4375 18.289 16.578 18.2416 16.7236 18.2228C16.8693 18.204 17.0172 18.2141 17.1589 18.2524C17.3006 18.2908 17.4334 18.3567 17.5497 18.4463C17.666 18.536 17.7634 18.6477 17.8365 18.775C17.9097 18.9024 17.957 19.0429 17.9758 19.1885L24.045 66.1H47.5056L53.5748 19.1885C53.5936 19.0429 53.6409 18.9024 53.714 18.775C53.7871 18.6477 53.8846 18.536 54.0009 18.4463C54.1172 18.3567 54.25 18.2908 54.3917 18.2524C54.5334 18.2141 54.6813 18.204 54.8269 18.2228C54.9726 18.2416 55.1131 18.289 55.2404 18.3621C55.3677 18.4352 55.4794 18.5326 55.5691 18.6489C55.6588 18.7652 55.7247 18.898 55.763 19.0397C55.8013 19.1814 55.8114 19.3293 55.7926 19.475L49.5962 67.3577C49.5623 67.627 49.4316 67.8747 49.2284 68.0547C49.0253 68.2347 48.7636 68.3347 48.4922 68.3359Z" fill="black" stroke="black" stroke-width="1.78876"/>
<path d="M43.5747 62.7461H27.9762C27.7041 62.7459 27.4414 62.6464 27.2374 62.4663C27.0333 62.2862 26.902 62.0379 26.868 61.7679L23.7936 38.0208C23.7552 37.7265 23.8353 37.429 24.0163 37.1938C24.1973 36.9586 24.4642 36.8049 24.7585 36.7666C25.0528 36.7282 25.3503 36.8083 25.5855 36.9893C25.8207 37.1702 25.9744 37.4372 26.0127 37.7315L28.9586 60.5102H42.5923L46.0538 33.7501C46.0996 33.4629 46.2556 33.2048 46.4886 33.0307C46.7217 32.8566 47.0134 32.7802 47.3018 32.8177C47.5903 32.8551 47.8527 33.0035 48.0336 33.2314C48.2144 33.4592 48.2992 33.7486 48.2702 34.038L44.6829 61.7679C44.6489 62.0379 44.5175 62.2862 44.3135 62.4663C44.1095 62.6464 43.8468 62.7459 43.5747 62.7461Z" fill="black" stroke="black" stroke-width="1.78876"/>
<path d="M57.4961 20.449H14.0545C13.758 20.449 13.4736 20.3312 13.264 20.1215C13.0543 19.9119 12.9365 19.6275 12.9365 19.331V12.8775C12.9365 12.581 13.0543 12.2966 13.264 12.087C13.4736 11.8773 13.758 11.7595 14.0545 11.7595H57.4961C57.7926 11.7595 58.077 11.8773 58.2866 12.087C58.4963 12.2966 58.6141 12.581 58.6141 12.8775V19.331C58.6141 19.6275 58.4963 19.9119 58.2866 20.1215C58.077 20.3312 57.7926 20.449 57.4961 20.449ZM15.1725 18.213H56.3781V13.9955H15.1725V18.213Z" fill="black" stroke="black" stroke-width="1.78876"/>
<path d="M28.3967 39.4783C24.3581 39.4783 22.2479 38.0124 20.3823 36.7197C19.7198 36.2368 19.0266 35.7976 18.307 35.4047C18.1748 35.3382 18.057 35.2461 17.9606 35.1338C17.8642 35.0214 17.7911 34.8911 17.7455 34.7502C17.6999 34.6094 17.6827 34.4609 17.695 34.3134C17.7072 34.1658 17.7487 34.0222 17.8169 33.8908C17.885 33.7594 17.9787 33.6429 18.0922 33.548C18.2058 33.453 18.3372 33.3816 18.4786 33.3379C18.62 33.2941 18.7687 33.2788 18.916 33.293C19.0634 33.3071 19.2065 33.3504 19.337 33.4203C20.1428 33.8561 20.9192 34.3444 21.661 34.8821C23.4861 36.1496 25.0624 37.2424 28.4009 37.2424C31.7395 37.2424 33.3172 36.1482 35.1423 34.8821C37.0065 33.588 39.1181 32.1221 43.1568 32.1221C47.1954 32.1221 49.3056 33.588 51.1726 34.8807C51.768 35.2999 52.3297 35.6842 52.9474 36.0308C53.2069 36.1757 53.3981 36.4177 53.4791 36.7037C53.5601 36.9896 53.5242 37.296 53.3792 37.5554C53.2343 37.8149 52.9923 38.0061 52.7063 38.0871C52.4204 38.1681 52.114 38.1321 51.8546 37.9872C51.1433 37.5876 50.5102 37.1488 49.8981 36.7295C48.0731 35.4634 46.4967 34.3692 43.1568 34.3692C39.8168 34.3692 38.2419 35.4634 36.4168 36.7295C34.5484 38.011 32.4368 39.4783 28.3967 39.4783Z" fill="black" stroke="black" stroke-width="1.78876"/>
<path d="M36.0607 36.7213C36.0286 36.7213 35.9979 36.7213 35.9657 36.7213C35.6703 36.6964 35.397 36.5552 35.2057 36.3288C35.0144 36.1023 34.9208 35.8092 34.9456 35.5139L37.3827 6.53601C37.4029 6.29523 37.5006 6.06746 37.661 5.88683C37.8215 5.7062 38.0362 5.58241 38.2729 5.53403L49.4904 3.23659C49.781 3.17711 50.0833 3.23549 50.3308 3.39889C50.5783 3.5623 50.7508 3.81734 50.8103 4.10791C50.8698 4.39849 50.8114 4.70079 50.648 4.94832C50.4846 5.19585 50.2295 5.36833 49.939 5.42782L39.5474 7.55756L37.1717 35.6969C37.1483 35.9757 37.0212 36.2356 36.8155 36.4252C36.6098 36.6149 36.3405 36.7205 36.0607 36.7213Z" fill="black" stroke="black" stroke-width="1.78876"/>
</svg>
